<svg xmlns="http://www.w3.org/2000/svg" viewBox="0 0 187.5 27.35"><defs><style>.cls-1{fill:#e90d00;}.cls-2{fill:#fff;}.cls-3{fill:none;stroke:#fff;stroke-miterlimit:10;stroke-width:2px;}.cls-4{fill:#ff1717;}</style></defs><g id="Layer_2" data-name="Layer 2"><g id="Guides"><path d="M64.52,15.27V22.2H62.13V15.27L56.94,5.16H59.6l3.73,7.69,3.72-7.69h2.66Z"/><path d="M72.14,21.76a4.15,4.15,0,0,1-1.72-1.82,6.4,6.4,0,0,1-.59-2.86v-2a6.29,6.29,0,0,1,.59-2.83,4.08,4.08,0,0,1,1.72-1.79,6.21,6.21,0,0,1,5.41,0,4.08,4.08,0,0,1,1.72,1.79,6.29,6.29,0,0,1,.59,2.83v2A6.38,6.38,0,0,1,79.27,20a4.21,4.21,0,0,1-1.72,1.8,6.21,6.21,0,0,1-5.41,0Zm4.64-2.44a3.25,3.25,0,0,0,.69-2.21v-2a3.16,3.16,0,0,0-.69-2.19,2.79,2.79,0,0,0-3.87,0,3.16,3.16,0,0,0-.69,2.19v2a3.25,3.25,0,0,0,.69,2.21,2.79,2.79,0,0,0,3.87,0Z"/><path d="M85.36,17.43a2.78,2.78,0,0,0,.65,2,2.38,2.38,0,0,0,1.83.69,2.5,2.5,0,0,0,1.82-.62,2.33,2.33,0,0,0,.64-1.77l.17,2.55a3.55,3.55,0,0,1-1.22,1.51,3.51,3.51,0,0,1-2.08.61,3.87,3.87,0,0,1-3.11-1.3A5.48,5.48,0,0,1,83,17.43V10h2.39ZM90.3,10h2.38V22.2H90.3Z"/><path class="cls-1" d="M93.27,5.16h12V7.43h-12Zm4.81,1.4h2.39V22.2H98.08Z"/><path class="cls-1" d="M108.38,17.43a2.83,2.83,0,0,0,.65,2,2.42,2.42,0,0,0,1.84.69,2.5,2.5,0,0,0,1.82-.62,2.37,2.37,0,0,0,.64-1.77l.16,2.55a3.42,3.42,0,0,1-3.29,2.12,3.87,3.87,0,0,1-3.11-1.3,5.49,5.49,0,0,1-1.1-3.65V10h2.39Zm5-7.39h2.38V22.2h-2.38Z"/><path class="cls-1" d="M120.92,21.83a3.69,3.69,0,0,1-1.44-1.69,6.53,6.53,0,0,1-.49-2.67V14.78a6.76,6.76,0,0,1,.48-2.68,3.63,3.63,0,0,1,1.4-1.69,4,4,0,0,1,2.21-.58,3.56,3.56,0,0,1,2,.56A4.11,4.11,0,0,1,126.5,12l-.24,2.48a2.86,2.86,0,0,0-.29-1.32,1.83,1.83,0,0,0-.81-.84,2.74,2.74,0,0,0-1.3-.28,2.32,2.32,0,0,0-1.83.73,3.08,3.08,0,0,0-.65,2.08v2.65a3,3,0,0,0,.65,2,2.34,2.34,0,0,0,1.83.72,2.63,2.63,0,0,0,1.3-.3,1.88,1.88,0,0,0,.81-.86,2.93,2.93,0,0,0,.29-1.35l.16,2.57a3.42,3.42,0,0,1-1.19,1.51,3.31,3.31,0,0,1-2,.61A4.25,4.25,0,0,1,120.92,21.83Zm0,4.81a4,4,0,0,1-1.68-1.44l1.62-1.46a3.29,3.29,0,0,0,1.12,1,2.76,2.76,0,0,0,1.36.35,2.88,2.88,0,0,0,2.13-.75,2.92,2.92,0,0,0,.75-2.14V10h2.39v11.8a6.23,6.23,0,0,1-.62,2.87,4.07,4.07,0,0,1-1.79,1.81,5.87,5.87,0,0,1-2.82.63A5.76,5.76,0,0,1,121,26.64Z"/><path class="cls-1" d="M134.38,21.74a4.25,4.25,0,0,1-1.83-1.85,6.57,6.57,0,0,1-.62-3V15.56a7.25,7.25,0,0,1,.6-3.09,4.3,4.3,0,0,1,1.75-1.94,5.39,5.39,0,0,1,2.77-.67,4.39,4.39,0,0,1,2.6.76,4.72,4.72,0,0,1,1.65,2.21,9.38,9.38,0,0,1,.56,3.45v.8h-8.2V15.16h5.93a4.05,4.05,0,0,0-.77-2.32,2.15,2.15,0,0,0-1.77-.82,2.55,2.55,0,0,0-2.1.89,3.79,3.79,0,0,0-.75,2.52V17a3.16,3.16,0,0,0,.8,2.32,3,3,0,0,0,2.26.81,3.7,3.7,0,0,0,1.44-.29A4.31,4.31,0,0,0,140,19l1.57,1.57a6.46,6.46,0,0,1-2,1.34,5.7,5.7,0,0,1-2.26.48A6,6,0,0,1,134.38,21.74Z"/><path class="cls-1" d="M144.21,10h5.48v2.15h-5.48Zm1.94,11.4a3.62,3.62,0,0,1-.69-2.4V6.5h2.39V19.06a1.13,1.13,0,0,0,.18.69.6.6,0,0,0,.51.24h1.15v2.27h-1.38A2.66,2.66,0,0,1,146.15,21.44Z"/><path class="cls-1" d="M153,5.16h2.39v17H153Zm7.39,9.67a2.8,2.8,0,0,0-.67-2,2.47,2.47,0,0,0-1.88-.71,2.55,2.55,0,0,0-1.81.61,2.3,2.3,0,0,0-.64,1.73l-.24-2.35a4.28,4.28,0,0,1,1.47-1.67,3.64,3.64,0,0,1,2-.59,3.75,3.75,0,0,1,3.06,1.3,5.5,5.5,0,0,1,1.09,3.66V22.2h-2.39Z"/><path class="cls-1" d="M168.48,21.74a4.17,4.17,0,0,1-1.82-1.85,6.44,6.44,0,0,1-.63-3V15.56a7.25,7.25,0,0,1,.6-3.09,4.3,4.3,0,0,1,1.75-1.94,5.39,5.39,0,0,1,2.77-.67,4.36,4.36,0,0,1,2.6.76,4.72,4.72,0,0,1,1.65,2.21,9.37,9.37,0,0,1,.57,3.45v.8h-8.21V15.16h5.93a4.12,4.12,0,0,0-.76-2.32,2.18,2.18,0,0,0-1.78-.82,2.55,2.55,0,0,0-2.1.89,3.79,3.79,0,0,0-.75,2.52V17a3.16,3.16,0,0,0,.8,2.32,3,3,0,0,0,2.26.81,3.63,3.63,0,0,0,1.44-.29,4.31,4.31,0,0,0,1.28-.82l1.57,1.57a6.46,6.46,0,0,1-2,1.34,5.7,5.7,0,0,1-2.26.48A6,6,0,0,1,168.48,21.74Z"/><path class="cls-1" d="M179.25,10h2.39V22.2h-2.39Zm5.89,2.29a2.93,2.93,0,0,0-1.11-.2,2.18,2.18,0,0,0-2.39,2.37l-.25-2.34a4.52,4.52,0,0,1,1.46-1.7,3.43,3.43,0,0,1,2-.6,4.47,4.47,0,0,1,1.51.24,3.45,3.45,0,0,1,1.18.71l-1.56,2.11A2.06,2.06,0,0,0,185.14,12.33Z"/><rect class="cls-1" width="53.68" height="27.35" rx="11.35"/><polygon class="cls-2" points="15.57 5.14 7.14 18 24 18 15.57 5.14"/><line class="cls-3" x1="12.65" y1="11.61" x2="12.65" y2="21.94"/><line class="cls-3" x1="18.32" y1="11.52" x2="18.32" y2="21.84"/><line class="cls-3" x1="7.48" y1="13.68" x2="24.52" y2="13.68"/><polygon class="cls-2" points="36.65 5.41 28.22 18.26 45.07 18.26 36.65 5.41"/><line class="cls-3" x1="33.72" y1="11.88" x2="33.72" y2="22.2"/><line class="cls-3" x1="39.4" y1="11.78" x2="39.4" y2="22.11"/><line class="cls-3" x1="28.56" y1="13.95" x2="45.59" y2="13.95"/><path class="cls-4" d="M13.76,11.63v.94h-.94v-.94Zm3.67,0v.94h-.94v-.94Z"/><path class="cls-4" d="M12,13.21a5,5,0,0,0,1.66,1,6.29,6.29,0,0,0,4,0,5,5,0,0,0,1.65-1l.56.61A5.53,5.53,0,0,1,18,15a6.6,6.6,0,0,1-2.32.39A6.6,6.6,0,0,1,13.35,15a5.44,5.44,0,0,1-1.9-1.17Z"/><path class="cls-4" d="M35,12.11v.94H34v-.94Zm3.67,0v.94h-.94v-.94Z"/><path class="cls-4" d="M33.19,13.68a5,5,0,0,0,1.66,1,6.29,6.29,0,0,0,4,0,5,5,0,0,0,1.66-1l.55.62a5.59,5.59,0,0,1-1.9,1.17,7.1,7.1,0,0,1-4.64,0,5.68,5.68,0,0,1-1.9-1.17Z"/></g></g></svg>